<svg width="156" height="441" viewBox="0 0 156 441" fill="none" xmlns="http://www.w3.org/2000/svg">
<path d="M15.12 31.868C15.3627 28.6787 16.5933 26.1827 18.812 24.38C21.0307 22.5773 23.908 21.676 27.444 21.676C29.8013 21.676 31.8293 22.1093 33.528 22.976C35.2613 23.808 36.5613 24.952 37.428 26.408C38.3293 27.864 38.78 29.5107 38.78 31.348C38.78 33.4973 38.156 35.352 36.908 36.912C35.6947 38.472 34.1 39.4773 32.124 39.928V40.188C34.3773 40.7427 36.1627 41.8347 37.48 43.464C38.7973 45.0933 39.456 47.2253 39.456 49.86C39.456 51.836 39.0053 53.6213 38.104 55.216C37.2027 56.776 35.8507 58.0067 34.048 58.908C32.2453 59.8093 30.0787 60.26 27.548 60.26C23.8733 60.26 20.8573 59.3067 18.5 57.4C16.1427 55.4587 14.8253 52.72 14.548 49.184H19.124C19.3667 51.264 20.216 52.9627 21.672 54.28C23.128 55.5973 25.0693 56.256 27.496 56.256C29.9227 56.256 31.76 55.632 33.008 54.384C34.2907 53.1013 34.932 51.4547 34.932 49.444C34.932 46.844 34.0653 44.972 32.332 43.828C30.5987 42.684 27.9813 42.112 24.48 42.112H23.284V38.16H24.532C27.7213 38.1253 30.1307 37.6053 31.76 36.6C33.3893 35.56 34.204 33.9653 34.204 31.816C34.204 29.9787 33.5973 28.5053 32.384 27.396C31.2053 26.2867 29.5067 25.732 27.288 25.732C25.1387 25.732 23.4053 26.2867 22.088 27.396C20.7707 28.5053 19.9907 29.996 19.748 31.868H15.12ZM69.8171 26.512H51.5651V38.368C52.3624 37.2587 53.5411 36.3573 55.1011 35.664C56.6611 34.936 58.3424 34.572 60.1451 34.572C63.0224 34.572 65.3624 35.1787 67.1651 36.392C68.9678 37.5707 70.2504 39.1133 71.0131 41.02C71.8104 42.892 72.2091 44.8853 72.2091 47C72.2091 49.496 71.7411 51.732 70.8051 53.708C69.8691 55.684 68.4304 57.244 66.4891 58.388C64.5824 59.532 62.2078 60.104 59.3651 60.104C55.7251 60.104 52.7784 59.168 50.5251 57.296C48.2718 55.424 46.9024 52.928 46.4171 49.808H51.0451C51.4958 51.784 52.4491 53.3267 53.9051 54.436C55.3611 55.5453 57.1984 56.1 59.4171 56.1C62.1558 56.1 64.2184 55.2853 65.6051 53.656C66.9918 51.992 67.6851 49.808 67.6851 47.104C67.6851 44.4 66.9918 42.32 65.6051 40.864C64.2184 39.3733 62.1731 38.628 59.4691 38.628C57.6318 38.628 56.0198 39.0787 54.6331 39.98C53.2811 40.8467 52.2931 42.0427 51.6691 43.568H47.1971V22.352H69.8171V26.512ZM78.4974 40.812C78.4974 34.8493 79.4681 30.204 81.4094 26.876C83.3508 23.5133 86.7481 21.832 91.6014 21.832C96.4201 21.832 99.8001 23.5133 101.741 26.876C103.683 30.204 104.653 34.8493 104.653 40.812C104.653 46.8787 103.683 51.5933 101.741 54.956C99.8001 58.3187 96.4201 60 91.6014 60C86.7481 60 83.3508 58.3187 81.4094 54.956C79.4681 51.5933 78.4974 46.8787 78.4974 40.812ZM99.9734 40.812C99.9734 37.796 99.7654 35.248 99.3494 33.168C98.9681 31.0533 98.1534 29.3547 96.9054 28.072C95.6921 26.7893 93.9241 26.148 91.6014 26.148C89.2441 26.148 87.4414 26.7893 86.1934 28.072C84.9801 29.3547 84.1654 31.0533 83.7494 33.168C83.3681 35.248 83.1774 37.796 83.1774 40.812C83.1774 43.932 83.3681 46.5493 83.7494 48.664C84.1654 50.7787 84.9801 52.4773 86.1934 53.76C87.4414 55.0427 89.2441 55.684 91.6014 55.684C93.9241 55.684 95.6921 55.0427 96.9054 53.76C98.1534 52.4773 98.9681 50.7787 99.3494 48.664C99.7654 46.5493 99.9734 43.932 99.9734 40.812ZM138.97 42.996H127.894V54.228H123.474V42.996H112.45V38.992H123.474V27.708H127.894V38.992H138.97V42.996Z" fill="white"/>
<path d="M11.688 94.112C11.688 95.04 11.368 95.8133 10.728 96.432C10.0987 97.04 9.13333 97.344 7.832 97.344H5.688V102H4.232V90.848H7.832C9.09067 90.848 10.0453 91.152 10.696 91.76C11.3573 92.368 11.688 93.152 11.688 94.112ZM7.832 96.144C8.64267 96.144 9.24 95.968 9.624 95.616C10.008 95.264 10.2 94.7627 10.2 94.112C10.2 92.736 9.41067 92.048 7.832 92.048H5.688V96.144H7.832ZM14.9536 94.656C15.2096 94.1547 15.5723 93.7653 16.0416 93.488C16.5216 93.2107 17.103 93.072 17.7856 93.072V94.576H17.4016C15.7696 94.576 14.9536 95.4613 14.9536 97.232V102H13.4976V93.232H14.9536V94.656ZM23.2904 102.144C22.469 102.144 21.7224 101.957 21.0504 101.584C20.389 101.211 19.8664 100.683 19.4824 100C19.109 99.3067 18.9224 98.5067 18.9224 97.6C18.9224 96.704 19.1144 95.9147 19.4984 95.232C19.893 94.5387 20.4264 94.0107 21.0984 93.648C21.7704 93.2747 22.5224 93.088 23.3544 93.088C24.1864 93.088 24.9384 93.2747 25.6104 93.648C26.2824 94.0107 26.8104 94.5333 27.1944 95.216C27.589 95.8987 27.7864 96.6933 27.7864 97.6C27.7864 98.5067 27.5837 99.3067 27.1784 100C26.7837 100.683 26.245 101.211 25.5624 101.584C24.8797 101.957 24.1224 102.144 23.2904 102.144ZM23.2904 100.864C23.813 100.864 24.3037 100.741 24.7624 100.496C25.221 100.251 25.589 99.8827 25.8664 99.392C26.1544 98.9013 26.2984 98.304 26.2984 97.6C26.2984 96.896 26.1597 96.2987 25.8824 95.808C25.605 95.3173 25.2424 94.9547 24.7944 94.72C24.3464 94.4747 23.861 94.352 23.3384 94.352C22.805 94.352 22.3144 94.4747 21.8664 94.72C21.429 94.9547 21.077 95.3173 20.8104 95.808C20.5437 96.2987 20.4104 96.896 20.4104 97.6C20.4104 98.3147 20.5384 98.9173 20.7944 99.408C21.061 99.8987 21.413 100.267 21.8504 100.512C22.2877 100.747 22.7677 100.864 23.2904 100.864ZM30.4848 91.808C30.2074 91.808 29.9728 91.712 29.7808 91.52C29.5994 91.328 29.5088 91.0933 29.5088 90.816C29.5088 90.5387 29.5994 90.304 29.7808 90.112C29.9728 89.92 30.2074 89.824 30.4848 89.824C30.7621 89.824 30.9914 89.92 31.1728 90.112C31.3648 90.304 31.4608 90.5387 31.4608 90.816C31.4608 91.0933 31.3648 91.328 31.1728 91.52C30.9914 91.712 30.7621 91.808 30.4848 91.808ZM31.2048 103.904C31.2048 104.683 31.0074 105.253 30.6128 105.616C30.2181 105.979 29.6421 106.16 28.8848 106.16H28.0367V104.928H28.6448C29.0501 104.928 29.3328 104.848 29.4928 104.688C29.6634 104.528 29.7488 104.256 29.7488 103.872V93.232H31.2048V103.904ZM41.6695 97.28C41.6695 97.5573 41.6535 97.8507 41.6215 98.16H34.6135C34.6668 99.024 34.9602 99.7013 35.4935 100.192C36.0375 100.672 36.6935 100.912 37.4615 100.912C38.0908 100.912 38.6135 100.768 39.0295 100.48C39.4562 100.181 39.7548 99.7867 39.9255 99.296H41.4935C41.2588 100.139 40.7895 100.827 40.0855 101.36C39.3815 101.883 38.5068 102.144 37.4615 102.144C36.6295 102.144 35.8828 101.957 35.2215 101.584C34.5708 101.211 34.0588 100.683 33.6855 100C33.3122 99.3067 33.1255 98.5067 33.1255 97.6C33.1255 96.6933 33.3068 95.8987 33.6695 95.216C34.0322 94.5333 34.5388 94.0107 35.1895 93.648C35.8508 93.2747 36.6082 93.088 37.4615 93.088C38.2935 93.088 39.0295 93.2693 39.6695 93.632C40.3095 93.9947 40.8002 94.496 41.1415 95.136C41.4935 95.7653 41.6695 96.48 41.6695 97.28ZM40.1655 96.976C40.1655 96.4213 40.0428 95.9467 39.7975 95.552C39.5522 95.1467 39.2162 94.8427 38.7895 94.64C38.3735 94.4267 37.9095 94.32 37.3975 94.32C36.6615 94.32 36.0322 94.5547 35.5095 95.024C34.9975 95.4933 34.7042 96.144 34.6295 96.976H40.1655ZM43.0474 97.6C43.0474 96.6933 43.2287 95.904 43.5914 95.232C43.954 94.5493 44.4554 94.0213 45.0954 93.648C45.746 93.2747 46.4874 93.088 47.3194 93.088C48.3967 93.088 49.282 93.3493 49.9754 93.872C50.6794 94.3947 51.1434 95.12 51.3674 96.048H49.7994C49.65 95.5147 49.3567 95.0933 48.9194 94.784C48.4927 94.4747 47.9594 94.32 47.3194 94.32C46.4874 94.32 45.8154 94.608 45.3034 95.184C44.7914 95.7493 44.5354 96.5547 44.5354 97.6C44.5354 98.656 44.7914 99.472 45.3034 100.048C45.8154 100.624 46.4874 100.912 47.3194 100.912C47.9594 100.912 48.4927 100.763 48.9194 100.464C49.346 100.165 49.6394 99.7387 49.7994 99.184H51.3674C51.1327 100.08 50.6634 100.8 49.9594 101.344C49.2554 101.877 48.3754 102.144 47.3194 102.144C46.4874 102.144 45.746 101.957 45.0954 101.584C44.4554 101.211 43.954 100.683 43.5914 100C43.2287 99.3173 43.0474 98.5173 43.0474 97.6ZM55.0861 94.432V99.6C55.0861 100.027 55.1768 100.331 55.3581 100.512C55.5395 100.683 55.8541 100.768 56.3021 100.768H57.3741V102H56.0621C55.2515 102 54.6435 101.813 54.2381 101.44C53.8328 101.067 53.6301 100.453 53.6301 99.6V94.432H52.4941V93.232H53.6301V91.024H55.0861V93.232H57.3741V94.432H55.0861ZM62.8599 96.416C62.8599 95.328 63.1052 94.352 63.5959 93.488C64.0865 92.6133 64.7532 91.9307 65.5959 91.44C66.4492 90.9493 67.3932 90.704 68.4279 90.704C69.6439 90.704 70.7052 90.9973 71.6119 91.584C72.5185 92.1707 73.1799 93.0027 73.5959 94.08H71.8519C71.5425 93.408 71.0945 92.8907 70.5079 92.528C69.9319 92.1653 69.2385 91.984 68.4279 91.984C67.6492 91.984 66.9505 92.1653 66.3319 92.528C65.7132 92.8907 65.2279 93.408 64.8759 94.08C64.5239 94.7413 64.3479 95.52 64.3479 96.416C64.3479 97.3013 64.5239 98.08 64.8759 98.752C65.2279 99.4133 65.7132 99.9253 66.3319 100.288C66.9505 100.651 67.6492 100.832 68.4279 100.832C69.2385 100.832 69.9319 100.656 70.5079 100.304C71.0945 99.9413 71.5425 99.424 71.8519 98.752H73.5959C73.1799 99.8187 72.5185 100.645 71.6119 101.232C70.7052 101.808 69.6439 102.096 68.4279 102.096C67.3932 102.096 66.4492 101.856 65.5959 101.376C64.7532 100.885 64.0865 100.208 63.5959 99.344C63.1052 98.48 62.8599 97.504 62.8599 96.416ZM79.5873 102.144C78.7659 102.144 78.0193 101.957 77.3473 101.584C76.6859 101.211 76.1633 100.683 75.7793 100C75.4059 99.3067 75.2193 98.5067 75.2193 97.6C75.2193 96.704 75.4113 95.9147 75.7953 95.232C76.1899 94.5387 76.7233 94.0107 77.3953 93.648C78.0673 93.2747 78.8193 93.088 79.6513 93.088C80.4833 93.088 81.2353 93.2747 81.9073 93.648C82.5793 94.0107 83.1073 94.5333 83.4913 95.216C83.8859 95.8987 84.0833 96.6933 84.0833 97.6C84.0833 98.5067 83.8806 99.3067 83.4753 100C83.0806 100.683 82.5419 101.211 81.8593 101.584C81.1766 101.957 80.4193 102.144 79.5873 102.144ZM79.5873 100.864C80.1099 100.864 80.6006 100.741 81.0593 100.496C81.5179 100.251 81.8859 99.8827 82.1633 99.392C82.4513 98.9013 82.5953 98.304 82.5953 97.6C82.5953 96.896 82.4566 96.2987 82.1793 95.808C81.9019 95.3173 81.5393 94.9547 81.0913 94.72C80.6433 94.4747 80.1579 94.352 79.6353 94.352C79.1019 94.352 78.6113 94.4747 78.1633 94.72C77.7259 94.9547 77.3739 95.3173 77.1073 95.808C76.8406 96.2987 76.7073 96.896 76.7073 97.6C76.7073 98.3147 76.8353 98.9173 77.0913 99.408C77.3579 99.8987 77.7099 100.267 78.1473 100.512C78.5846 100.747 79.0646 100.864 79.5873 100.864ZM96.5416 93.072C97.2243 93.072 97.8323 93.216 98.3656 93.504C98.899 93.7813 99.3203 94.2027 99.6296 94.768C99.939 95.3333 100.094 96.0213 100.094 96.832V102H98.6536V97.04C98.6536 96.1653 98.435 95.4987 97.9976 95.04C97.571 94.5707 96.9896 94.336 96.2536 94.336C95.4963 94.336 94.8936 94.5813 94.4456 95.072C93.9976 95.552 93.7736 96.2507 93.7736 97.168V102H92.3336V97.04C92.3336 96.1653 92.115 95.4987 91.6776 95.04C91.251 94.5707 90.6696 94.336 89.9336 94.336C89.1763 94.336 88.5736 94.5813 88.1256 95.072C87.6776 95.552 87.4536 96.2507 87.4536 97.168V102H85.9976V93.232H87.4536V94.496C87.7416 94.0373 88.1256 93.6853 88.6056 93.44C89.0963 93.1947 89.635 93.072 90.2216 93.072C90.9576 93.072 91.6083 93.2373 92.1736 93.568C92.739 93.8987 93.1603 94.384 93.4376 95.024C93.683 94.4053 94.0883 93.9253 94.6536 93.584C95.219 93.2427 95.8483 93.072 96.5416 93.072ZM103.938 94.848C104.226 94.3467 104.653 93.9307 105.218 93.6C105.794 93.2587 106.461 93.088 107.218 93.088C107.997 93.088 108.701 93.2747 109.33 93.648C109.97 94.0213 110.471 94.5493 110.834 95.232C111.197 95.904 111.378 96.688 111.378 97.584C111.378 98.4693 111.197 99.2587 110.834 99.952C110.471 100.645 109.97 101.184 109.33 101.568C108.701 101.952 107.997 102.144 107.218 102.144C106.471 102.144 105.81 101.979 105.234 101.648C104.669 101.307 104.237 100.885 103.938 100.384V106.16H102.482V93.232H103.938V94.848ZM109.89 97.584C109.89 96.9227 109.757 96.3467 109.49 95.856C109.223 95.3653 108.861 94.992 108.402 94.736C107.954 94.48 107.458 94.352 106.914 94.352C106.381 94.352 105.885 94.4853 105.426 94.752C104.978 95.008 104.615 95.3867 104.338 95.888C104.071 96.3787 103.938 96.9493 103.938 97.6C103.938 98.2613 104.071 98.8427 104.338 99.344C104.615 99.8347 104.978 100.213 105.426 100.48C105.885 100.736 106.381 100.864 106.914 100.864C107.458 100.864 107.954 100.736 108.402 100.48C108.861 100.213 109.223 99.8347 109.49 99.344C109.757 98.8427 109.89 98.256 109.89 97.584ZM114.751 90.16V102H113.295V90.16H114.751ZM125.232 97.28C125.232 97.5573 125.216 97.8507 125.184 98.16H118.176C118.229 99.024 118.523 99.7013 119.056 100.192C119.6 100.672 120.256 100.912 121.024 100.912C121.653 100.912 122.176 100.768 122.592 100.48C123.019 100.181 123.317 99.7867 123.488 99.296H125.056C124.821 100.139 124.352 100.827 123.648 101.36C122.944 101.883 122.069 102.144 121.024 102.144C120.192 102.144 119.445 101.957 118.784 101.584C118.133 101.211 117.621 100.683 117.248 100C116.875 99.3067 116.688 98.5067 116.688 97.6C116.688 96.6933 116.869 95.8987 117.232 95.216C117.595 94.5333 118.101 94.0107 118.752 93.648C119.413 93.2747 120.171 93.088 121.024 93.088C121.856 93.088 122.592 93.2693 123.232 93.632C123.872 93.9947 124.363 94.496 124.704 95.136C125.056 95.7653 125.232 96.48 125.232 97.28ZM123.728 96.976C123.728 96.4213 123.605 95.9467 123.36 95.552C123.115 95.1467 122.779 94.8427 122.352 94.64C121.936 94.4267 121.472 94.32 120.96 94.32C120.224 94.32 119.595 94.5547 119.072 95.024C118.56 95.4933 118.267 96.144 118.192 96.976H123.728ZM128.93 94.432V99.6C128.93 100.027 129.021 100.331 129.202 100.512C129.383 100.683 129.698 100.768 130.146 100.768H131.218V102H129.906C129.095 102 128.487 101.813 128.082 101.44C127.677 101.067 127.474 100.453 127.474 99.6V94.432H126.338V93.232H127.474V91.024H128.93V93.232H131.218V94.432H128.93ZM140.982 97.28C140.982 97.5573 140.966 97.8507 140.934 98.16H133.926C133.979 99.024 134.273 99.7013 134.806 100.192C135.35 100.672 136.006 100.912 136.774 100.912C137.403 100.912 137.926 100.768 138.342 100.48C138.769 100.181 139.067 99.7867 139.238 99.296H140.806C140.571 100.139 140.102 100.827 139.398 101.36C138.694 101.883 137.819 102.144 136.774 102.144C135.942 102.144 135.195 101.957 134.534 101.584C133.883 101.211 133.371 100.683 132.998 100C132.625 99.3067 132.438 98.5067 132.438 97.6C132.438 96.6933 132.619 95.8987 132.982 95.216C133.345 94.5333 133.851 94.0107 134.502 93.648C135.163 93.2747 135.921 93.088 136.774 93.088C137.606 93.088 138.342 93.2693 138.982 93.632C139.622 93.9947 140.113 94.496 140.454 95.136C140.806 95.7653 140.982 96.48 140.982 97.28ZM139.478 96.976C139.478 96.4213 139.355 95.9467 139.11 95.552C138.865 95.1467 138.529 94.8427 138.102 94.64C137.686 94.4267 137.222 94.32 136.71 94.32C135.974 94.32 135.345 94.5547 134.822 95.024C134.31 95.4933 134.017 96.144 133.942 96.976H139.478ZM142.36 97.584C142.36 96.688 142.541 95.904 142.904 95.232C143.267 94.5493 143.763 94.0213 144.392 93.648C145.032 93.2747 145.747 93.088 146.536 93.088C147.219 93.088 147.853 93.248 148.44 93.568C149.027 93.8773 149.475 94.288 149.784 94.8V90.16H151.256V102H149.784V100.352C149.496 100.875 149.069 101.307 148.504 101.648C147.939 101.979 147.277 102.144 146.52 102.144C145.741 102.144 145.032 101.952 144.392 101.568C143.763 101.184 143.267 100.645 142.904 99.952C142.541 99.2587 142.36 98.4693 142.36 97.584ZM149.784 97.6C149.784 96.9387 149.651 96.3627 149.384 95.872C149.117 95.3813 148.755 95.008 148.296 94.752C147.848 94.4853 147.352 94.352 146.808 94.352C146.264 94.352 145.768 94.48 145.32 94.736C144.872 94.992 144.515 95.3653 144.248 95.856C143.981 96.3467 143.848 96.9227 143.848 97.584C143.848 98.256 143.981 98.8427 144.248 99.344C144.515 99.8347 144.872 100.213 145.32 100.48C145.768 100.736 146.264 100.864 146.808 100.864C147.352 100.864 147.848 100.736 148.296 100.48C148.755 100.213 149.117 99.8347 149.384 99.344C149.651 98.8427 149.784 98.2613 149.784 97.6Z" fill="white"/>
<path d="M31.652 222.204C36.0547 218.668 39.504 215.773 42 213.52C44.496 211.232 46.5933 208.857 48.292 206.396C50.0253 203.9 50.892 201.456 50.892 199.064C50.892 196.811 50.3373 195.043 49.228 193.76C48.1533 192.443 46.4027 191.784 43.976 191.784C41.6187 191.784 39.7813 192.529 38.464 194.02C37.1813 195.476 36.488 197.435 36.384 199.896H31.808C31.9467 196.013 33.1253 193.015 35.344 190.9C37.5627 188.785 40.4227 187.728 43.924 187.728C47.4947 187.728 50.32 188.716 52.4 190.692C54.5147 192.668 55.572 195.389 55.572 198.856C55.572 201.733 54.7053 204.541 52.972 207.28C51.2733 209.984 49.332 212.376 47.148 214.456C44.964 216.501 42.1733 218.893 38.776 221.632H56.664V225.584H31.652V222.204ZM62.0302 197.868C62.2728 194.679 63.5035 192.183 65.7222 190.38C67.9408 188.577 70.8182 187.676 74.3542 187.676C76.7115 187.676 78.7395 188.109 80.4382 188.976C82.1715 189.808 83.4715 190.952 84.3382 192.408C85.2395 193.864 85.6902 195.511 85.6902 197.348C85.6902 199.497 85.0662 201.352 83.8182 202.912C82.6048 204.472 81.0102 205.477 79.0342 205.928V206.188C81.2875 206.743 83.0728 207.835 84.3902 209.464C85.7075 211.093 86.3662 213.225 86.3662 215.86C86.3662 217.836 85.9155 219.621 85.0142 221.216C84.1128 222.776 82.7608 224.007 80.9582 224.908C79.1555 225.809 76.9888 226.26 74.4582 226.26C70.7835 226.26 67.7675 225.307 65.4102 223.4C63.0528 221.459 61.7355 218.72 61.4582 215.184H66.0342C66.2768 217.264 67.1262 218.963 68.5822 220.28C70.0382 221.597 71.9795 222.256 74.4062 222.256C76.8328 222.256 78.6702 221.632 79.9182 220.384C81.2008 219.101 81.8422 217.455 81.8422 215.444C81.8422 212.844 80.9755 210.972 79.2422 209.828C77.5088 208.684 74.8915 208.112 71.3902 208.112H70.1942V204.16H71.4422C74.6315 204.125 77.0408 203.605 78.6702 202.6C80.2995 201.56 81.1142 199.965 81.1142 197.816C81.1142 195.979 80.5075 194.505 79.2942 193.396C78.1155 192.287 76.4168 191.732 74.1982 191.732C72.0488 191.732 70.3155 192.287 68.9982 193.396C67.6808 194.505 66.9008 195.996 66.6582 197.868H62.0302ZM120.575 208.996H109.499V220.228H105.079V208.996H94.0553V204.992H105.079V193.708H109.499V204.992H120.575V208.996Z" fill="white"/>
<path d="M8.688 260.112C8.688 261.04 8.368 261.813 7.728 262.432C7.09867 263.04 6.13333 263.344 4.832 263.344H2.688V268H1.232V256.848H4.832C6.09067 256.848 7.04533 257.152 7.696 257.76C8.35733 258.368 8.688 259.152 8.688 260.112ZM4.832 262.144C5.64267 262.144 6.24 261.968 6.624 261.616C7.008 261.264 7.2 260.763 7.2 260.112C7.2 258.736 6.41067 258.048 4.832 258.048H2.688V262.144H4.832ZM11.9536 260.656C12.2096 260.155 12.5723 259.765 13.0416 259.488C13.5216 259.211 14.103 259.072 14.7856 259.072V260.576H14.4016C12.7696 260.576 11.9536 261.461 11.9536 263.232V268H10.4976V259.232H11.9536V260.656ZM20.2904 268.144C19.469 268.144 18.7224 267.957 18.0504 267.584C17.389 267.211 16.8664 266.683 16.4824 266C16.109 265.307 15.9224 264.507 15.9224 263.6C15.9224 262.704 16.1144 261.915 16.4984 261.232C16.893 260.539 17.4264 260.011 18.0984 259.648C18.7704 259.275 19.5224 259.088 20.3544 259.088C21.1864 259.088 21.9384 259.275 22.6104 259.648C23.2824 260.011 23.8104 260.533 24.1944 261.216C24.589 261.899 24.7864 262.693 24.7864 263.6C24.7864 264.507 24.5837 265.307 24.1784 266C23.7837 266.683 23.245 267.211 22.5624 267.584C21.8797 267.957 21.1224 268.144 20.2904 268.144ZM20.2904 266.864C20.813 266.864 21.3037 266.741 21.7624 266.496C22.221 266.251 22.589 265.883 22.8664 265.392C23.1544 264.901 23.2984 264.304 23.2984 263.6C23.2984 262.896 23.1597 262.299 22.8824 261.808C22.605 261.317 22.2424 260.955 21.7944 260.72C21.3464 260.475 20.861 260.352 20.3384 260.352C19.805 260.352 19.3144 260.475 18.8664 260.72C18.429 260.955 18.077 261.317 17.8104 261.808C17.5437 262.299 17.4104 262.896 17.4104 263.6C17.4104 264.315 17.5384 264.917 17.7944 265.408C18.061 265.899 18.413 266.267 18.8504 266.512C19.2877 266.747 19.7677 266.864 20.2904 266.864ZM30.2688 260.432H28.4288V268H26.9728V260.432H25.8368V259.232H26.9728V258.608C26.9728 257.627 27.2234 256.912 27.7248 256.464C28.2368 256.005 29.0528 255.776 30.1727 255.776V256.992C29.5328 256.992 29.0794 257.12 28.8128 257.376C28.5568 257.621 28.4288 258.032 28.4288 258.608V259.232H30.2688V260.432ZM39.9664 263.28C39.9664 263.557 39.9504 263.851 39.9184 264.16H32.9104C32.9637 265.024 33.257 265.701 33.7904 266.192C34.3344 266.672 34.9904 266.912 35.7584 266.912C36.3877 266.912 36.9104 266.768 37.3264 266.48C37.753 266.181 38.0517 265.787 38.2224 265.296H39.7904C39.5557 266.139 39.0864 266.827 38.3824 267.36C37.6784 267.883 36.8037 268.144 35.7584 268.144C34.9264 268.144 34.1797 267.957 33.5184 267.584C32.8677 267.211 32.3557 266.683 31.9824 266C31.609 265.307 31.4224 264.507 31.4224 263.6C31.4224 262.693 31.6037 261.899 31.9664 261.216C32.329 260.533 32.8357 260.011 33.4864 259.648C34.1477 259.275 34.905 259.088 35.7584 259.088C36.5904 259.088 37.3264 259.269 37.9664 259.632C38.6064 259.995 39.097 260.496 39.4384 261.136C39.7904 261.765 39.9664 262.48 39.9664 263.28ZM38.4624 262.976C38.4624 262.421 38.3397 261.947 38.0944 261.552C37.849 261.147 37.513 260.843 37.0864 260.64C36.6704 260.427 36.2064 260.32 35.6944 260.32C34.9584 260.32 34.329 260.555 33.8064 261.024C33.2944 261.493 33.001 262.144 32.9264 262.976H38.4624ZM44.9923 268.144C44.3203 268.144 43.7176 268.032 43.1843 267.808C42.6509 267.573 42.2296 267.253 41.9203 266.848C41.6109 266.432 41.4403 265.957 41.4083 265.424H42.9123C42.9549 265.861 43.1576 266.219 43.5203 266.496C43.8936 266.773 44.3789 266.912 44.9763 266.912C45.5309 266.912 45.9683 266.789 46.2883 266.544C46.6083 266.299 46.7683 265.989 46.7683 265.616C46.7683 265.232 46.5976 264.949 46.2563 264.768C45.9149 264.576 45.3869 264.389 44.6723 264.208C44.0216 264.037 43.4883 263.867 43.0723 263.696C42.6669 263.515 42.3149 263.253 42.0163 262.912C41.7283 262.56 41.5843 262.101 41.5843 261.536C41.5843 261.088 41.7176 260.677 41.9843 260.304C42.2509 259.931 42.6296 259.637 43.1203 259.424C43.6109 259.2 44.1709 259.088 44.8003 259.088C45.7709 259.088 46.5549 259.333 47.1523 259.824C47.7496 260.315 48.0696 260.987 48.1123 261.84H46.6563C46.6243 261.381 46.4376 261.013 46.0963 260.736C45.7656 260.459 45.3176 260.32 44.7523 260.32C44.2296 260.32 43.8136 260.432 43.5043 260.656C43.1949 260.88 43.0403 261.173 43.0403 261.536C43.0403 261.824 43.1309 262.064 43.3123 262.256C43.5043 262.437 43.7389 262.587 44.0163 262.704C44.3043 262.811 44.6989 262.933 45.2003 263.072C45.8296 263.243 46.3416 263.413 46.7363 263.584C47.1309 263.744 47.4669 263.989 47.7443 264.32C48.0323 264.651 48.1816 265.083 48.1923 265.616C48.1923 266.096 48.0589 266.528 47.7923 266.912C47.5256 267.296 47.1469 267.6 46.6563 267.824C46.1763 268.037 45.6216 268.144 44.9923 268.144ZM53.3516 268.144C52.6796 268.144 52.077 268.032 51.5436 267.808C51.0103 267.573 50.589 267.253 50.2796 266.848C49.9703 266.432 49.7996 265.957 49.7676 265.424H51.2716C51.3143 265.861 51.517 266.219 51.8796 266.496C52.253 266.773 52.7383 266.912 53.3356 266.912C53.8903 266.912 54.3276 266.789 54.6476 266.544C54.9676 266.299 55.1276 265.989 55.1276 265.616C55.1276 265.232 54.957 264.949 54.6156 264.768C54.2743 264.576 53.7463 264.389 53.0316 264.208C52.381 264.037 51.8476 263.867 51.4316 263.696C51.0263 263.515 50.6743 263.253 50.3756 262.912C50.0876 262.56 49.9436 262.101 49.9436 261.536C49.9436 261.088 50.077 260.677 50.3436 260.304C50.6103 259.931 50.989 259.637 51.4796 259.424C51.9703 259.2 52.5303 259.088 53.1596 259.088C54.1303 259.088 54.9143 259.333 55.5116 259.824C56.109 260.315 56.429 260.987 56.4716 261.84H55.0156C54.9836 261.381 54.797 261.013 54.4556 260.736C54.125 260.459 53.677 260.32 53.1116 260.32C52.589 260.32 52.173 260.432 51.8636 260.656C51.5543 260.88 51.3996 261.173 51.3996 261.536C51.3996 261.824 51.4903 262.064 51.6716 262.256C51.8636 262.437 52.0983 262.587 52.3756 262.704C52.6636 262.811 53.0583 262.933 53.5596 263.072C54.189 263.243 54.701 263.413 55.0956 263.584C55.4903 263.744 55.8263 263.989 56.1036 264.32C56.3916 264.651 56.541 265.083 56.5516 265.616C56.5516 266.096 56.4183 266.528 56.1516 266.912C55.885 267.296 55.5063 267.6 55.0156 267.824C54.5356 268.037 53.981 268.144 53.3516 268.144ZM59.359 257.808C59.0817 257.808 58.847 257.712 58.655 257.52C58.463 257.328 58.367 257.093 58.367 256.816C58.367 256.539 58.463 256.304 58.655 256.112C58.847 255.92 59.0817 255.824 59.359 255.824C59.6257 255.824 59.8497 255.92 60.031 256.112C60.223 256.304 60.319 256.539 60.319 256.816C60.319 257.093 60.223 257.328 60.031 257.52C59.8497 257.712 59.6257 257.808 59.359 257.808ZM60.063 259.232V268H58.607V259.232H60.063ZM66.3685 268.144C65.5472 268.144 64.8005 267.957 64.1285 267.584C63.4672 267.211 62.9445 266.683 62.5605 266C62.1872 265.307 62.0005 264.507 62.0005 263.6C62.0005 262.704 62.1925 261.915 62.5765 261.232C62.9712 260.539 63.5045 260.011 64.1765 259.648C64.8485 259.275 65.6005 259.088 66.4325 259.088C67.2645 259.088 68.0165 259.275 68.6885 259.648C69.3605 260.011 69.8885 260.533 70.2725 261.216C70.6672 261.899 70.8645 262.693 70.8645 263.6C70.8645 264.507 70.6618 265.307 70.2565 266C69.8618 266.683 69.3232 267.211 68.6405 267.584C67.9578 267.957 67.2005 268.144 66.3685 268.144ZM66.3685 266.864C66.8912 266.864 67.3818 266.741 67.8405 266.496C68.2992 266.251 68.6672 265.883 68.9445 265.392C69.2325 264.901 69.3765 264.304 69.3765 263.6C69.3765 262.896 69.2378 262.299 68.9605 261.808C68.6832 261.317 68.3205 260.955 67.8725 260.72C67.4245 260.475 66.9392 260.352 66.4165 260.352C65.8832 260.352 65.3925 260.475 64.9445 260.72C64.5072 260.955 64.1552 261.317 63.8885 261.808C63.6218 262.299 63.4885 262.896 63.4885 263.6C63.4885 264.315 63.6165 264.917 63.8725 265.408C64.1392 265.899 64.4912 266.267 64.9285 266.512C65.3658 266.747 65.8458 266.864 66.3685 266.864ZM77.0509 259.072C78.1175 259.072 78.9815 259.397 79.6429 260.048C80.3042 260.688 80.6349 261.616 80.6349 262.832V268H79.1949V263.04C79.1949 262.165 78.9762 261.499 78.5389 261.04C78.1015 260.571 77.5042 260.336 76.7469 260.336C75.9789 260.336 75.3655 260.576 74.9069 261.056C74.4589 261.536 74.2349 262.235 74.2349 263.152V268H72.7789V259.232H74.2349V260.48C74.5229 260.032 74.9122 259.685 75.4029 259.44C75.9042 259.195 76.4535 259.072 77.0509 259.072ZM82.4693 263.584C82.4693 262.688 82.6506 261.904 83.0133 261.232C83.3759 260.549 83.8719 260.021 84.5013 259.648C85.1413 259.275 85.8506 259.088 86.6293 259.088C87.3973 259.088 88.0639 259.253 88.6293 259.584C89.1946 259.915 89.6159 260.331 89.8933 260.832V259.232H91.3653V268H89.8933V266.368C89.6053 266.88 89.1733 267.307 88.5973 267.648C88.0319 267.979 87.3706 268.144 86.6133 268.144C85.8346 268.144 85.1306 267.952 84.5013 267.568C83.8719 267.184 83.3759 266.645 83.0133 265.952C82.6506 265.259 82.4693 264.469 82.4693 263.584ZM89.8933 263.6C89.8933 262.939 89.7599 262.363 89.4933 261.872C89.2266 261.381 88.8639 261.008 88.4053 260.752C87.9573 260.485 87.4613 260.352 86.9173 260.352C86.3733 260.352 85.8773 260.48 85.4293 260.736C84.9813 260.992 84.6239 261.365 84.3573 261.856C84.0906 262.347 83.9573 262.923 83.9573 263.584C83.9573 264.256 84.0906 264.843 84.3573 265.344C84.6239 265.835 84.9813 266.213 85.4293 266.48C85.8773 266.736 86.3733 266.864 86.9173 266.864C87.4613 266.864 87.9573 266.736 88.4053 266.48C88.8639 266.213 89.2266 265.835 89.4933 265.344C89.7599 264.843 89.8933 264.261 89.8933 263.6ZM95.2818 256.16V268H93.8258V256.16H95.2818ZM108.893 256.848V258.032H105.853V268H104.397V258.032H101.341V256.848H108.893ZM118.685 263.28C118.685 263.557 118.669 263.851 118.637 264.16H111.629C111.682 265.024 111.976 265.701 112.509 266.192C113.053 266.672 113.709 266.912 114.477 266.912C115.106 266.912 115.629 266.768 116.045 266.48C116.472 266.181 116.77 265.787 116.941 265.296H118.509C118.274 266.139 117.805 266.827 117.101 267.36C116.397 267.883 115.522 268.144 114.477 268.144C113.645 268.144 112.898 267.957 112.237 267.584C111.586 267.211 111.074 266.683 110.701 266C110.328 265.307 110.141 264.507 110.141 263.6C110.141 262.693 110.322 261.899 110.685 261.216C111.048 260.533 111.554 260.011 112.205 259.648C112.866 259.275 113.624 259.088 114.477 259.088C115.309 259.088 116.045 259.269 116.685 259.632C117.325 259.995 117.816 260.496 118.157 261.136C118.509 261.765 118.685 262.48 118.685 263.28ZM117.181 262.976C117.181 262.421 117.058 261.947 116.813 261.552C116.568 261.147 116.232 260.843 115.805 260.64C115.389 260.427 114.925 260.32 114.413 260.32C113.677 260.32 113.048 260.555 112.525 261.024C112.013 261.493 111.72 262.144 111.645 262.976H117.181ZM120.063 263.584C120.063 262.688 120.244 261.904 120.607 261.232C120.97 260.549 121.466 260.021 122.095 259.648C122.735 259.275 123.444 259.088 124.223 259.088C124.991 259.088 125.658 259.253 126.223 259.584C126.788 259.915 127.21 260.331 127.487 260.832V259.232H128.959V268H127.487V266.368C127.199 266.88 126.767 267.307 126.191 267.648C125.626 267.979 124.964 268.144 124.207 268.144C123.428 268.144 122.724 267.952 122.095 267.568C121.466 267.184 120.97 266.645 120.607 265.952C120.244 265.259 120.063 264.469 120.063 263.584ZM127.487 263.6C127.487 262.939 127.354 262.363 127.087 261.872C126.82 261.381 126.458 261.008 125.999 260.752C125.551 260.485 125.055 260.352 124.511 260.352C123.967 260.352 123.471 260.48 123.023 260.736C122.575 260.992 122.218 261.365 121.951 261.856C121.684 262.347 121.551 262.923 121.551 263.584C121.551 264.256 121.684 264.843 121.951 265.344C122.218 265.835 122.575 266.213 123.023 266.48C123.471 266.736 123.967 266.864 124.511 266.864C125.055 266.864 125.551 266.736 125.999 266.48C126.458 266.213 126.82 265.835 127.087 265.344C127.354 264.843 127.487 264.261 127.487 263.6ZM141.964 259.072C142.646 259.072 143.254 259.216 143.788 259.504C144.321 259.781 144.742 260.203 145.052 260.768C145.361 261.333 145.516 262.021 145.516 262.832V268H144.076V263.04C144.076 262.165 143.857 261.499 143.42 261.04C142.993 260.571 142.412 260.336 141.676 260.336C140.918 260.336 140.316 260.581 139.868 261.072C139.42 261.552 139.196 262.251 139.196 263.168V268H137.756V263.04C137.756 262.165 137.537 261.499 137.1 261.04C136.673 260.571 136.092 260.336 135.356 260.336C134.598 260.336 133.996 260.581 133.548 261.072C133.1 261.552 132.876 262.251 132.876 263.168V268H131.42V259.232H132.876V260.496C133.164 260.037 133.548 259.685 134.028 259.44C134.518 259.195 135.057 259.072 135.644 259.072C136.38 259.072 137.03 259.237 137.596 259.568C138.161 259.899 138.582 260.384 138.86 261.024C139.105 260.405 139.51 259.925 140.076 259.584C140.641 259.243 141.27 259.072 141.964 259.072ZM151.008 268.144C150.336 268.144 149.733 268.032 149.2 267.808C148.667 267.573 148.245 267.253 147.936 266.848C147.627 266.432 147.456 265.957 147.424 265.424H148.928C148.971 265.861 149.173 266.219 149.536 266.496C149.909 266.773 150.395 266.912 150.992 266.912C151.547 266.912 151.984 266.789 152.304 266.544C152.624 266.299 152.784 265.989 152.784 265.616C152.784 265.232 152.613 264.949 152.272 264.768C151.931 264.576 151.403 264.389 150.688 264.208C150.037 264.037 149.504 263.867 149.088 263.696C148.683 263.515 148.331 263.253 148.032 262.912C147.744 262.56 147.6 262.101 147.6 261.536C147.6 261.088 147.733 260.677 148 260.304C148.267 259.931 148.645 259.637 149.136 259.424C149.627 259.2 150.187 259.088 150.816 259.088C151.787 259.088 152.571 259.333 153.168 259.824C153.765 260.315 154.085 260.987 154.128 261.84H152.672C152.64 261.381 152.453 261.013 152.112 260.736C151.781 260.459 151.333 260.32 150.768 260.32C150.245 260.32 149.829 260.432 149.52 260.656C149.211 260.88 149.056 261.173 149.056 261.536C149.056 261.824 149.147 262.064 149.328 262.256C149.52 262.437 149.755 262.587 150.032 262.704C150.32 262.811 150.715 262.933 151.216 263.072C151.845 263.243 152.357 263.413 152.752 263.584C153.147 263.744 153.483 263.989 153.76 264.32C154.048 264.651 154.197 265.083 154.208 265.616C154.208 266.096 154.075 266.528 153.808 266.912C153.541 267.296 153.163 267.6 152.672 267.824C152.192 268.037 151.637 268.144 151.008 268.144Z" fill="white"/>
<path d="M37.976 358.72V354.404H47.752V392H42.968V358.72H37.976ZM79.8523 358.512H61.6003V370.368C62.3976 369.259 63.5763 368.357 65.1363 367.664C66.6963 366.936 68.3776 366.572 70.1803 366.572C73.0576 366.572 75.3976 367.179 77.2003 368.392C79.0029 369.571 80.2856 371.113 81.0483 373.02C81.8456 374.892 82.2443 376.885 82.2443 379C82.2443 381.496 81.7763 383.732 80.8403 385.708C79.9043 387.684 78.4656 389.244 76.5243 390.388C74.6176 391.532 72.2429 392.104 69.4003 392.104C65.7603 392.104 62.8136 391.168 60.5603 389.296C58.3069 387.424 56.9376 384.928 56.4523 381.808H61.0803C61.5309 383.784 62.4843 385.327 63.9403 386.436C65.3963 387.545 67.2336 388.1 69.4523 388.1C72.1909 388.1 74.2536 387.285 75.6403 385.656C77.0269 383.992 77.7203 381.808 77.7203 379.104C77.7203 376.4 77.0269 374.32 75.6403 372.864C74.2536 371.373 72.2083 370.628 69.5043 370.628C67.6669 370.628 66.0549 371.079 64.6683 371.98C63.3163 372.847 62.3283 374.043 61.7043 375.568H57.2323V354.352H79.8523V358.512ZM116.353 374.996H105.277V386.228H100.857V374.996H89.8326V370.992H100.857V359.708H105.277V370.992H116.353V374.996Z" fill="white"/>
<path d="M20.04 422.848L16.408 429.792V434H14.952V429.792L11.304 422.848H12.92L15.672 428.496L18.424 422.848H20.04ZM29.5758 429.28C29.5758 429.557 29.5598 429.851 29.5278 430.16H22.5198C22.5731 431.024 22.8664 431.701 23.3998 432.192C23.9438 432.672 24.5998 432.912 25.3678 432.912C25.9971 432.912 26.5198 432.768 26.9358 432.48C27.3624 432.181 27.6611 431.787 27.8318 431.296H29.3998C29.1651 432.139 28.6958 432.827 27.9918 433.36C27.2878 433.883 26.4131 434.144 25.3678 434.144C24.5358 434.144 23.7891 433.957 23.1278 433.584C22.4771 433.211 21.9651 432.683 21.5918 432C21.2184 431.307 21.0318 430.507 21.0318 429.6C21.0318 428.693 21.2131 427.899 21.5758 427.216C21.9384 426.533 22.4451 426.011 23.0958 425.648C23.7571 425.275 24.5144 425.088 25.3678 425.088C26.1998 425.088 26.9358 425.269 27.5758 425.632C28.2158 425.995 28.7064 426.496 29.0478 427.136C29.3998 427.765 29.5758 428.48 29.5758 429.28ZM28.0718 428.976C28.0718 428.421 27.9491 427.947 27.7038 427.552C27.4584 427.147 27.1224 426.843 26.6958 426.64C26.2798 426.427 25.8158 426.32 25.3038 426.32C24.5678 426.32 23.9384 426.555 23.4158 427.024C22.9038 427.493 22.6104 428.144 22.5358 428.976H28.0718ZM30.9536 429.584C30.9536 428.688 31.135 427.904 31.4976 427.232C31.8603 426.549 32.3563 426.021 32.9856 425.648C33.6256 425.275 34.335 425.088 35.1136 425.088C35.8816 425.088 36.5483 425.253 37.1136 425.584C37.679 425.915 38.1003 426.331 38.3776 426.832V425.232H39.8496V434H38.3776V432.368C38.0896 432.88 37.6576 433.307 37.0816 433.648C36.5163 433.979 35.855 434.144 35.0976 434.144C34.319 434.144 33.615 433.952 32.9856 433.568C32.3563 433.184 31.8603 432.645 31.4976 431.952C31.135 431.259 30.9536 430.469 30.9536 429.584ZM38.3776 429.6C38.3776 428.939 38.2443 428.363 37.9776 427.872C37.711 427.381 37.3483 427.008 36.8896 426.752C36.4416 426.485 35.9456 426.352 35.4016 426.352C34.8576 426.352 34.3616 426.48 33.9136 426.736C33.4656 426.992 33.1083 427.365 32.8416 427.856C32.575 428.347 32.4416 428.923 32.4416 429.584C32.4416 430.256 32.575 430.843 32.8416 431.344C33.1083 431.835 33.4656 432.213 33.9136 432.48C34.3616 432.736 34.8576 432.864 35.4016 432.864C35.9456 432.864 36.4416 432.736 36.8896 432.48C37.3483 432.213 37.711 431.835 37.9776 431.344C38.2443 430.843 38.3776 430.261 38.3776 429.6ZM43.7661 426.656C44.0221 426.155 44.3848 425.765 44.8541 425.488C45.3341 425.211 45.9155 425.072 46.5981 425.072V426.576H46.2141C44.5821 426.576 43.7661 427.461 43.7661 429.232V434H42.3101V425.232H43.7661V426.656ZM51.3829 434.144C50.7109 434.144 50.1082 434.032 49.5749 433.808C49.0415 433.573 48.6202 433.253 48.3109 432.848C48.0015 432.432 47.8309 431.957 47.7989 431.424H49.3029C49.3455 431.861 49.5482 432.219 49.9109 432.496C50.2842 432.773 50.7695 432.912 51.3669 432.912C51.9215 432.912 52.3589 432.789 52.6789 432.544C52.9989 432.299 53.1589 431.989 53.1589 431.616C53.1589 431.232 52.9882 430.949 52.6469 430.768C52.3055 430.576 51.7775 430.389 51.0629 430.208C50.4122 430.037 49.8789 429.867 49.4629 429.696C49.0575 429.515 48.7055 429.253 48.4069 428.912C48.1189 428.56 47.9749 428.101 47.9749 427.536C47.9749 427.088 48.1082 426.677 48.3749 426.304C48.6415 425.931 49.0202 425.637 49.5109 425.424C50.0015 425.2 50.5615 425.088 51.1909 425.088C52.1615 425.088 52.9455 425.333 53.5429 425.824C54.1402 426.315 54.4602 426.987 54.5029 427.84H53.0469C53.0149 427.381 52.8282 427.013 52.4869 426.736C52.1562 426.459 51.7082 426.32 51.1429 426.32C50.6202 426.32 50.2042 426.432 49.8949 426.656C49.5855 426.88 49.4309 427.173 49.4309 427.536C49.4309 427.824 49.5215 428.064 49.7029 428.256C49.8949 428.437 50.1295 428.587 50.4069 428.704C50.6949 428.811 51.0895 428.933 51.5909 429.072C52.2202 429.243 52.7322 429.413 53.1269 429.584C53.5215 429.744 53.8575 429.989 54.1349 430.32C54.4229 430.651 54.5722 431.083 54.5829 431.616C54.5829 432.096 54.4495 432.528 54.1829 432.912C53.9162 433.296 53.5375 433.6 53.0469 433.824C52.5669 434.037 52.0122 434.144 51.3829 434.144ZM62.3599 424.032V427.76H66.4239V428.96H62.3599V432.8H66.9039V434H60.9039V422.832H66.9039V424.032H62.3599ZM73.683 434L71.603 430.736L69.603 434H68.083L70.915 429.648L68.083 425.232H69.731L71.811 428.48L73.795 425.232H75.315L72.499 429.568L75.331 434H73.683ZM78.2193 426.848C78.5073 426.347 78.9339 425.931 79.4993 425.6C80.0753 425.259 80.7419 425.088 81.4993 425.088C82.2779 425.088 82.9819 425.275 83.6112 425.648C84.2512 426.021 84.7526 426.549 85.1153 427.232C85.4779 427.904 85.6593 428.688 85.6593 429.584C85.6593 430.469 85.4779 431.259 85.1153 431.952C84.7526 432.645 84.2512 433.184 83.6112 433.568C82.9819 433.952 82.2779 434.144 81.4993 434.144C80.7526 434.144 80.0913 433.979 79.5153 433.648C78.9499 433.307 78.5179 432.885 78.2193 432.384V438.16H76.7633V425.232H78.2193V426.848ZM84.1713 429.584C84.1713 428.923 84.0379 428.347 83.7713 427.856C83.5046 427.365 83.1419 426.992 82.6833 426.736C82.2353 426.48 81.7393 426.352 81.1953 426.352C80.6619 426.352 80.1659 426.485 79.7073 426.752C79.2593 427.008 78.8966 427.387 78.6193 427.888C78.3526 428.379 78.2193 428.949 78.2193 429.6C78.2193 430.261 78.3526 430.843 78.6193 431.344C78.8966 431.835 79.2593 432.213 79.7073 432.48C80.1659 432.736 80.6619 432.864 81.1953 432.864C81.7393 432.864 82.2353 432.736 82.6833 432.48C83.1419 432.213 83.5046 431.835 83.7713 431.344C84.0379 430.843 84.1713 430.256 84.1713 429.584ZM95.5758 429.28C95.5758 429.557 95.5598 429.851 95.5278 430.16H88.5198C88.5731 431.024 88.8664 431.701 89.3998 432.192C89.9438 432.672 90.5998 432.912 91.3678 432.912C91.9971 432.912 92.5198 432.768 92.9358 432.48C93.3624 432.181 93.6611 431.787 93.8318 431.296H95.3998C95.1651 432.139 94.6958 432.827 93.9918 433.36C93.2878 433.883 92.4131 434.144 91.3678 434.144C90.5358 434.144 89.7891 433.957 89.1278 433.584C88.4771 433.211 87.9651 432.683 87.5918 432C87.2184 431.307 87.0318 430.507 87.0318 429.6C87.0318 428.693 87.2131 427.899 87.5758 427.216C87.9384 426.533 88.4451 426.011 89.0958 425.648C89.7571 425.275 90.5144 425.088 91.3678 425.088C92.1998 425.088 92.9358 425.269 93.5758 425.632C94.2158 425.995 94.7064 426.496 95.0478 427.136C95.3998 427.765 95.5758 428.48 95.5758 429.28ZM94.0718 428.976C94.0718 428.421 93.9491 427.947 93.7038 427.552C93.4584 427.147 93.1224 426.843 92.6958 426.64C92.2798 426.427 91.8158 426.32 91.3038 426.32C90.5678 426.32 89.9384 426.555 89.4158 427.024C88.9038 427.493 88.6104 428.144 88.5358 428.976H94.0718ZM98.9536 426.656C99.2096 426.155 99.5723 425.765 100.042 425.488C100.522 425.211 101.103 425.072 101.786 425.072V426.576H101.402C99.7696 426.576 98.9536 427.461 98.9536 429.232V434H97.4976V425.232H98.9536V426.656ZM104.218 423.808C103.941 423.808 103.706 423.712 103.514 423.52C103.322 423.328 103.226 423.093 103.226 422.816C103.226 422.539 103.322 422.304 103.514 422.112C103.706 421.92 103.941 421.824 104.218 421.824C104.485 421.824 104.709 421.92 104.89 422.112C105.082 422.304 105.178 422.539 105.178 422.816C105.178 423.093 105.082 423.328 104.89 423.52C104.709 423.712 104.485 423.808 104.218 423.808ZM104.922 425.232V434H103.466V425.232H104.922ZM115.404 429.28C115.404 429.557 115.388 429.851 115.356 430.16H108.348C108.401 431.024 108.695 431.701 109.228 432.192C109.772 432.672 110.428 432.912 111.196 432.912C111.825 432.912 112.348 432.768 112.764 432.48C113.191 432.181 113.489 431.787 113.66 431.296H115.228C114.993 432.139 114.524 432.827 113.82 433.36C113.116 433.883 112.241 434.144 111.196 434.144C110.364 434.144 109.617 433.957 108.956 433.584C108.305 433.211 107.793 432.683 107.42 432C107.047 431.307 106.86 430.507 106.86 429.6C106.86 428.693 107.041 427.899 107.404 427.216C107.767 426.533 108.273 426.011 108.924 425.648C109.585 425.275 110.343 425.088 111.196 425.088C112.028 425.088 112.764 425.269 113.404 425.632C114.044 425.995 114.535 426.496 114.876 427.136C115.228 427.765 115.404 428.48 115.404 429.28ZM113.9 428.976C113.9 428.421 113.777 427.947 113.532 427.552C113.287 427.147 112.951 426.843 112.524 426.64C112.108 426.427 111.644 426.32 111.132 426.32C110.396 426.32 109.767 426.555 109.244 427.024C108.732 427.493 108.439 428.144 108.364 428.976H113.9ZM121.598 425.072C122.664 425.072 123.528 425.397 124.19 426.048C124.851 426.688 125.182 427.616 125.182 428.832V434H123.742V429.04C123.742 428.165 123.523 427.499 123.086 427.04C122.648 426.571 122.051 426.336 121.294 426.336C120.526 426.336 119.912 426.576 119.454 427.056C119.006 427.536 118.782 428.235 118.782 429.152V434H117.326V425.232H118.782V426.48C119.07 426.032 119.459 425.685 119.95 425.44C120.451 425.195 121 425.072 121.598 425.072ZM127.016 429.6C127.016 428.693 127.197 427.904 127.56 427.232C127.923 426.549 128.424 426.021 129.064 425.648C129.715 425.275 130.456 425.088 131.288 425.088C132.365 425.088 133.251 425.349 133.944 425.872C134.648 426.395 135.112 427.12 135.336 428.048H133.768C133.619 427.515 133.325 427.093 132.888 426.784C132.461 426.475 131.928 426.32 131.288 426.32C130.456 426.32 129.784 426.608 129.272 427.184C128.76 427.749 128.504 428.555 128.504 429.6C128.504 430.656 128.76 431.472 129.272 432.048C129.784 432.624 130.456 432.912 131.288 432.912C131.928 432.912 132.461 432.763 132.888 432.464C133.315 432.165 133.608 431.739 133.768 431.184H135.336C135.101 432.08 134.632 432.8 133.928 433.344C133.224 433.877 132.344 434.144 131.288 434.144C130.456 434.144 129.715 433.957 129.064 433.584C128.424 433.211 127.923 432.683 127.56 432C127.197 431.317 127.016 430.517 127.016 429.6ZM145.279 429.28C145.279 429.557 145.263 429.851 145.231 430.16H138.223C138.276 431.024 138.57 431.701 139.103 432.192C139.647 432.672 140.303 432.912 141.071 432.912C141.7 432.912 142.223 432.768 142.639 432.48C143.066 432.181 143.364 431.787 143.535 431.296H145.103C144.868 432.139 144.399 432.827 143.695 433.36C142.991 433.883 142.116 434.144 141.071 434.144C140.239 434.144 139.492 433.957 138.831 433.584C138.18 433.211 137.668 432.683 137.295 432C136.922 431.307 136.735 430.507 136.735 429.6C136.735 428.693 136.916 427.899 137.279 427.216C137.642 426.533 138.148 426.011 138.799 425.648C139.46 425.275 140.218 425.088 141.071 425.088C141.903 425.088 142.639 425.269 143.279 425.632C143.919 425.995 144.41 426.496 144.751 427.136C145.103 427.765 145.279 428.48 145.279 429.28ZM143.775 428.976C143.775 428.421 143.652 427.947 143.407 427.552C143.162 427.147 142.826 426.843 142.399 426.64C141.983 426.427 141.519 426.32 141.007 426.32C140.271 426.32 139.642 426.555 139.119 427.024C138.607 427.493 138.314 428.144 138.239 428.976H143.775Z" fill="white"/>
</svg>
